<?xml version="1.0" encoding="utf-8"?>
<svg version="1.1" id="Layer_1" xmlns="http://www.w3.org/2000/svg" xmlns:xlink="http://www.w3.org/1999/xlink" x="0px" y="0px"
	 viewBox="0 0 500 500" style="enable-background:new 0 0 500 500;" xml:space="preserve">
<style type="text/css">
	.st0{fill:#FBFCFC;}
	.st1{fill:#4D565B;}
	.st2{fill:#E51627;}
	.st3{fill:#03B7EB;}
	.st4{fill:#03BAEF;}
	.st5{fill:#ED610D;}
	.st6{fill:#ABABAB;}
	.st7{fill:#0FBFF1;}
	.st8{fill:#FAC23C;}
	.st9{fill:#CACACA;}
</style>
<g>
	<path class="st0" d="M252,183.5c47.9-0.8,96.4-6.9,142.3,13.6c-0.1,35.4-0.1,70.8-0.2,106.2c-45.8,19.6-94.1,13.8-141.8,14.1
		c-32.7-2.1-65.4-4.2-98.2-6.2c0.2-17.9,0.3-35.8,0.5-53.7c28,0.5,56,1.3,84,0.9c3.8,0,7.5-5.9,11.2-9.1c-3.7-2.7-7.3-7.6-11-7.6
		c-28-0.3-56,0.3-84,0.7c-0.1-18.1-0.2-36.2-0.3-54.3C187,186.5,219.5,185,252,183.5z M287.2,223.7c-13.9,17.6-15.7,36.4,0.9,52.5
		c16.3,15.9,36.6,16.1,52.4-0.5c15.7-16.5,15.1-36.3-1.4-52.4C322.8,207.4,304.8,210,287.2,223.7z"/>
	<path class="st1" d="M154.5,188.1c0.1,18.1,0.2,36.2,0.3,54.3c-0.1,5-0.2,10-0.3,15.1c-0.2,17.9-0.3,35.8-0.5,53.7
		c-1.4,1.3-2.9,2.6-4.3,3.9c-16.1-9.2-32.1-18.4-48.2-27.6c-0.1-5.1-0.2-10.1-0.4-15.2c0-15-0.1-29.9-0.1-44.9
		c-0.2-5.1-0.4-10.2-0.7-15.3c16.4-8.8,32.9-17.6,49.3-26.4C151.3,186.4,152.9,187.3,154.5,188.1z"/>
	<path class="st2" d="M394.1,303.2c0.1-35.4,0.1-70.8,0.2-106.2c1.6,0.2,3.5,0,4.7,0.8c25.9,17.5,51.6,35.1,77.4,52.8
		C454.2,276.4,425.8,292.4,394.1,303.2z"/>
	<path class="st3" d="M149.8,315c1.4-1.3,2.9-2.6,4.3-3.9c32.7,2.1,65.5,4.2,98.2,6.2c-17.6,16-32.6,39.2-53.3,46.6
		C156.8,379,144.2,353.6,149.8,315z"/>
	<path class="st4" d="M154.5,188.1c-1.6-0.8-3.1-1.6-4.7-2.4c-5.7-50.3,14.4-67.5,60-42.9c16.6,9,28.3,26.9,42.2,40.7
		C219.5,185,187,186.5,154.5,188.1z"/>
	<path class="st5" d="M100.5,212c0.2,5.1,0.4,10.2,0.6,15.3c-15.5,7.3-31.1,14.6-46.6,21.9c11.6,15.7,27.3,23.1,46.7,23
		c0.1,5.1,0.3,10.1,0.4,15.2c-33.2,6.9-55-13.3-76.8-32.8c-1.6-1.5-1.5-8.1,0.2-9.7C46.4,225.7,68.1,206.3,100.5,212z"/>
	<path class="st6" d="M287.2,223.7c17.6-13.7,35.6-16.3,51.8-0.4c16.5,16.1,17.2,36,1.4,52.4c-15.9,16.6-36.1,16.4-52.4,0.5
		C271.5,260.1,273.2,241.3,287.2,223.7z M330.6,267.7c11.3-11.6,11.8-25.2,1.2-35.8c-10.6-10.7-25.8-10.1-36.3,0.4
		c-9.3,9.3-10.4,22.1-0.2,33.1C306.3,277.2,318,278.6,330.6,267.7z"/>
	<path class="st7" d="M154.5,257.4c0.1-5,0.2-10,0.3-15.1c28-0.4,56-1,84-0.7c3.7,0,7.3,5,11,7.6c-3.7,3.2-7.4,9-11.2,9.1
		C210.5,258.7,182.5,257.8,154.5,257.4z"/>
	<path class="st8" d="M101.2,272.1c-19.4,0.1-35.1-7.3-46.7-23c15.5-7.3,31.1-14.6,46.6-21.9C101.1,242.2,101.2,257.2,101.2,272.1z"
		/>
	<path class="st9" d="M330.5,267.9c-12.5,10.7-24.2,9.4-35.2-2.4c-10.3-11.1-9.1-23.8,0.2-33.1c10.5-10.6,25.7-11.1,36.3-0.4
		C342.4,242.6,341.9,256.2,330.5,267.9z"/>
</g>
</svg>
